<svg xmlns="http://www.w3.org/2000/svg" viewBox="0 0 1061.28 366.77"><g id="Layer_2" data-name="Layer 2"><g id="Layer_1-2" data-name="Layer 1"><ellipse cx="530.64" cy="183.39" rx="527.64" ry="180.38" style="fill:#fff;stroke:#000;stroke-miterlimit:10;stroke-width:6px"/><path d="M34.1,244.53l464-10.32L625.08,111.28l382.11-5.42S871.22,2.53,512.67,3,41.91,115.27,41.91,115.27-36.51,167.85,34.1,244.53Z" style="fill:#d11c18;stroke:#000;stroke-miterlimit:10;stroke-width:6px"/><path d="M620.42,275.57,593.78,173.43h24.13c9.81,46.93,14.28,67.75,15.5,79h.15c4-18.75,14.09-54.31,20.19-79h20.34c5.38,19.6,16,59.23,19.37,77.92h.15c3.48-22.49,13.75-62,17.43-77.92h22L704.68,275.57H681.24C675.72,253,666.52,220,662.83,202.45h-.15c-3.8,18.18-13.25,52.56-18.83,73.12Z" style="fill:#d11c18;stroke:#000;stroke-miterlimit:10;stroke-width:4px"/><path d="M811.59,237.08c0,23.2-14.22,40.27-39.12,40.27-24.37,0-38.59-17-38.59-39.86,0-23.66,14.67-40.38,39.62-40.38C796.63,197.11,811.59,213,811.59,237.08Zm-55.63.15c0,14.76,6.51,23.51,17,23.51,10.65,0,16.57-8.76,16.57-23.38,0-16.05-6-23.63-16.88-23.63C762.55,213.73,756,221,756,237.23Z" style="fill:#d11c18;stroke:#000;stroke-miterlimit:10;stroke-width:4px"/><path d="M826.54,275.57V167.43h21.75V275.57Z" style="fill:#d11c18;stroke:#000;stroke-miterlimit:10;stroke-width:4px"/><path d="M235.09,151.06C230.89,170.11,216.17,184,190,184c-33.19,0-48.88-22.92-48.88-52,0-28,16.19-53.09,50-53.09,27.87,0,41.38,16,43.94,33H212.35c-2.19-7.87-7.8-15.72-22-15.72-18.66,0-25.87,16.38-25.87,35,0,17.27,6.25,35.46,26.48,35.46,14.76,0,19.43-9.65,21.4-15.61Z" style="fill:#fff;stroke:#000;stroke-miterlimit:10;stroke-width:4px"/><path d="M324,144.05c0,23.2-14.23,40.27-39.12,40.27-24.37,0-38.59-17-38.59-39.86,0-23.66,14.66-40.38,39.62-40.38C309,104.08,324,120,324,144.05Zm-55.63.15c0,14.76,6.5,23.51,17,23.51,10.65,0,16.57-8.75,16.57-23.38,0-16-6-23.63-16.87-23.63C275,120.7,268.37,128,268.37,144.2Z" style="fill:#fff;stroke:#000;stroke-miterlimit:10;stroke-width:4px"/><path d="M360.56,175.75v36.16H338.94V124.34c0-6.2,0-12.33-.15-18.48h21.07a85.57,85.57,0,0,1,.7,9.55c3.37-5.63,10.39-11.33,22.85-11.33,17.64,0,31.29,14.41,31.29,38.2,0,27.05-15.24,42-34.28,42C369.34,184.32,363.56,180.24,360.56,175.75Zm32.07-32.66c0-14.05-5.83-22-16.18-22-12.36,0-16.74,7.73-16.74,23.19,0,14.63,4.05,23.15,15.81,23.15C387,167.45,392.63,158.71,392.63,143.09Z" style="fill:#fff;stroke:#000;stroke-miterlimit:10;stroke-width:4px"/><path d="M444.21,105.86c8.11,26.46,15.19,50.07,16.44,57.16h.15c1.7-7.73,6.3-24.92,15.68-57.16h21.66l-26.4,78.89c-7.51,22.06-13.78,28.64-32.65,28.64-1.94,0-6.43-.15-10.2-.57V195.76c1.48.17,3.87.31,5.63.31,8,0,12-2.7,15-11.18l-28.59-79Z" style="fill:#fff;stroke:#000;stroke-miterlimit:10;stroke-width:4px"/></g></g></svg>